<svg width="24" height="24" viewBox="0 0 24 24" fill="none" xmlns="http://www.w3.org/2000/svg">
<path opacity="0.3" d="M12 4C18.928 4 23.258 11.5 19.794 17.5C19.0041 18.8681 17.868 20.0043 16.4998 20.7942C15.1317 21.5841 13.5798 22 12 22C5.07198 22 0.741979 14.5 4.20598 8.5C4.99587 7.13186 6.13198 5.99574 7.50011 5.20583C8.86824 4.41592 10.4202 4.00004 12 4Z" fill="black"/>
<path d="M7.36607 2.97109C7.49867 3.20077 7.5346 3.47372 7.46597 3.72989C7.39733 3.98606 7.22974 4.20448 7.00007 4.33709C5.95977 4.94046 5.0356 5.72477 4.27107 6.65309C4.18908 6.75869 4.08675 6.84677 3.97013 6.91213C3.85351 6.9775 3.72497 7.01882 3.5921 7.03364C3.45924 7.04847 3.32475 7.0365 3.19659 6.99845C3.06843 6.9604 2.9492 6.89704 2.84595 6.81212C2.7427 6.72719 2.65753 6.62242 2.59547 6.50401C2.53341 6.3856 2.49573 6.25594 2.48464 6.12272C2.47356 5.98949 2.4893 5.85539 2.53094 5.72835C2.57258 5.60131 2.63927 5.48391 2.72707 5.38309C3.64171 4.26842 4.74975 3.32772 5.99807 2.60609C6.11178 2.54023 6.23735 2.49743 6.36761 2.48014C6.49787 2.46284 6.63026 2.47138 6.75721 2.50528C6.88417 2.53918 7.0032 2.59777 7.1075 2.67769C7.2118 2.75762 7.29932 2.85732 7.36507 2.97109H7.36607ZM18.0001 2.60609C19.2487 3.32732 20.357 4.26769 21.2721 5.38209C21.4317 5.58773 21.5049 5.84753 21.476 6.10627C21.4472 6.36501 21.3185 6.60229 21.1175 6.76767C20.9164 6.93306 20.6587 7.01351 20.3993 6.99193C20.1398 6.97034 19.899 6.84842 19.7281 6.65209C18.965 5.72261 18.0405 4.93839 16.9991 4.33709C16.7695 4.20422 16.6022 3.9856 16.5338 3.72933C16.4654 3.47306 16.5017 3.20013 16.6346 2.97059C16.7674 2.74104 16.9861 2.57368 17.2423 2.50533C17.4986 2.43697 17.7705 2.47322 18.0001 2.60609ZM12.0001 8.00009C11.7551 8.00012 11.5187 8.09004 11.3357 8.2528C11.1527 8.41556 11.0357 8.63984 11.0071 8.88309L11.0001 9.00009V12.9861C10.9971 13.2081 11.0681 13.4261 11.2021 13.6031L11.2921 13.7071L13.3981 15.8121C13.5776 15.9933 13.8196 16.0991 14.0746 16.1078C14.3296 16.1164 14.5782 16.0273 14.7696 15.8586C14.9611 15.69 15.0808 15.4545 15.1043 15.2005C15.1278 14.9464 15.0533 14.693 14.8961 14.4921L14.8121 14.3981L13.0001 12.5861V9.00009C13.0001 8.73487 12.8947 8.48052 12.7072 8.29298C12.5196 8.10545 12.2653 8.00009 12.0001 8.00009Z" fill="black"/>
</svg>
