<svg width="24" height="24" viewBox="0 0 24 24" fill="none" xmlns="http://www.w3.org/2000/svg">
<path opacity="0.3" fill-rule="evenodd" clip-rule="evenodd" d="M2 12C2 6.477 6.477 2 12 2C17.523 2 22 6.477 22 12C22 17.523 17.523 22 12 22C6.477 22 2 17.523 2 12Z" fill="black"/>
<path fill-rule="evenodd" clip-rule="evenodd" d="M8.7 13C8.804 13.856 9.057 14.716 9.486 15.458C10.083 16.489 11.058 17.338 12.446 17.501C13.853 17.667 15.283 16.991 16.146 15.886C16.2268 15.7823 16.2863 15.6638 16.3212 15.5371C16.3561 15.4104 16.3657 15.2781 16.3495 15.1477C16.3332 15.0173 16.2914 14.8914 16.2265 14.7772C16.1615 14.6629 16.0747 14.5626 15.971 14.482C15.479 14.098 14.878 14.283 14.511 14.725C13.563 15.87 11.961 15.741 11.217 14.455C10.9672 14.0029 10.799 13.5104 10.72 13H15C15.2652 13 15.5196 12.8946 15.7071 12.7071C15.8946 12.5195 16 12.2652 16 12C16 11.7347 15.8946 11.4804 15.7071 11.2929C15.5196 11.1053 15.2652 11 15 11H10.746C10.846 10.483 11.019 10.002 11.256 9.60696C11.966 8.42196 13.59 8.11596 14.499 9.26696C14.851 9.71196 15.449 9.91296 15.947 9.54896C16.1606 9.39181 16.3031 9.15624 16.343 8.89407C16.383 8.6319 16.3171 8.3646 16.16 8.15096C15.315 6.99496 14.062 6.42996 12.629 6.55196C11.196 6.67396 10.172 7.52496 9.541 8.57796C9.105 9.30496 8.838 10.15 8.718 11H8C7.73478 11 7.48043 11.1053 7.29289 11.2929C7.10536 11.4804 7 11.7347 7 12C7 12.2652 7.10536 12.5195 7.29289 12.7071C7.48043 12.8946 7.73478 13 8 13H8.7Z" fill="black"/>
</svg>
