<svg width="24" height="24" viewBox="0 0 24 24" fill="none" xmlns="http://www.w3.org/2000/svg">
<path d="M13.0001 20.0001C13.255 20.0004 13.5001 20.098 13.6855 20.273C13.8708 20.4479 13.9823 20.6871 13.9973 20.9415C14.0122 21.1959 13.9294 21.4465 13.7658 21.6419C13.6023 21.8374 13.3702 21.963 13.1171 21.9931L13.0001 22.0001H11.0001C10.7452 21.9998 10.5001 21.9022 10.3147 21.7273C10.1294 21.5523 10.0179 21.3132 10.0029 21.0587C9.988 20.8043 10.0708 20.5537 10.2344 20.3583C10.398 20.1628 10.63 20.0372 10.8831 20.0071L11.0001 20.0001H13.0001ZM13.7071 6.29311C13.5349 6.12093 13.3058 6.0175 13.0628 6.00222C12.8198 5.98694 12.5795 6.06085 12.3871 6.21011L12.2931 6.29311L10.3001 8.28611C10.1262 8.45999 10.0218 8.69133 10.0063 8.93674C9.99085 9.18215 10.0654 9.42477 10.2161 9.61911L10.3001 9.71411L11.5861 11.0001L10.2931 12.2931C10.1138 12.4731 10.0096 12.7145 10.0019 12.9685C9.99413 13.2224 10.0833 13.4698 10.2514 13.6604C10.4194 13.8509 10.6537 13.9704 10.9066 13.9945C11.1595 14.0186 11.4121 13.9455 11.6131 13.7901L11.7071 13.7071L13.7001 11.7141C14.0601 11.3541 14.0961 10.7831 13.7841 10.3811L13.7001 10.2861L12.4141 9.00011L13.7071 7.70711C13.8946 7.51958 13.9999 7.26527 13.9999 7.00011C13.9999 6.73494 13.8946 6.48063 13.7071 6.29311Z" fill="black"/>
<path opacity="0.3" d="M12 2C16.41 2 20 5.543 20 9.933C20 12.939 18.478 15.129 17.22 16.427L16.936 16.71L16.666 16.962L16.414 17.182L16.084 17.452L15.756 17.696C15.515 17.866 15.353 18.115 15.206 18.374L15.001 18.738C14.763 19.148 14.484 19.5 13.893 19.5H10.107C9.517 19.5 9.237 19.149 8.999 18.738L8.881 18.53C8.709 18.218 8.533 17.9 8.244 17.696L8.012 17.525L7.813 17.37L7.586 17.182L7.334 16.962L7.064 16.71L6.779 16.427C5.522 15.129 4 12.939 4 9.933C4 5.543 7.59 2 12 2Z" fill="black"/>
</svg>
