<svg width="24" height="24" viewBox="0 0 24 24" fill="none" xmlns="http://www.w3.org/2000/svg">
<path opacity="0.3" d="M13.2989 3.14795L21.9329 18.1019C22.0646 18.33 22.1339 18.5886 22.1339 18.8519C22.1339 19.1152 22.0646 19.3739 21.9329 19.6019C21.8013 19.83 21.6119 20.0193 21.3839 20.151C21.1559 20.2826 20.8972 20.3519 20.6339 20.3519H3.36593C3.10263 20.3519 2.84397 20.2826 2.61594 20.151C2.38792 20.0193 2.19857 19.83 2.06692 19.6019C1.93527 19.3739 1.86597 19.1152 1.86597 18.8519C1.86597 18.5886 1.93528 18.33 2.06693 18.1019L10.7009 3.14795C11.2779 2.14795 12.7209 2.14795 13.2989 3.14795Z" fill="black"/>
<path d="M12 8C11.7551 8.00003 11.5187 8.08996 11.3356 8.25272C11.1526 8.41547 11.0357 8.63975 11.007 8.883L11 9V13C11.0003 13.2549 11.0979 13.5 11.2728 13.6854C11.4478 13.8707 11.687 13.9822 11.9414 13.9972C12.1958 14.0121 12.4464 13.9293 12.6418 13.7657C12.8373 13.6021 12.9629 13.3701 12.993 13.117L13 13V9C13 8.73478 12.8946 8.48043 12.7071 8.29289C12.5196 8.10536 12.2652 8 12 8ZM12 15C11.7348 15 11.4804 15.1054 11.2929 15.2929C11.1054 15.4804 11 15.7348 11 16C11 16.2652 11.1054 16.5196 11.2929 16.7071C11.4804 16.8946 11.7348 17 12 17C12.2652 17 12.5196 16.8946 12.7071 16.7071C12.8946 16.5196 13 16.2652 13 16C13 15.7348 12.8946 15.4804 12.7071 15.2929C12.5196 15.1054 12.2652 15 12 15Z" fill="black"/>
</svg>
