<svg width="24" height="24" viewBox="0 0 24 24" fill="none" xmlns="http://www.w3.org/2000/svg">
<rect width="24" height="24" rx="12" fill="white"/>
<path fill-rule="evenodd" clip-rule="evenodd" d="M8.7 12.9692C8.804 13.8252 9.057 14.6852 9.486 15.4272C10.083 16.4582 11.058 17.3072 12.446 17.4702C13.853 17.6362 15.283 16.9602 16.146 15.8552C16.2268 15.7515 16.2863 15.633 16.3212 15.5063C16.3561 15.3796 16.3657 15.2473 16.3495 15.1169C16.3332 14.9865 16.2914 14.8606 16.2265 14.7464C16.1615 14.6322 16.0747 14.5319 15.971 14.4512C15.479 14.0672 14.878 14.2522 14.511 14.6942C13.563 15.8392 11.961 15.7102 11.217 14.4242C10.9672 13.9721 10.799 13.4796 10.72 12.9692H15C15.2652 12.9692 15.5196 12.8638 15.7071 12.6763C15.8946 12.4888 16 12.2344 16 11.9692C16 11.704 15.8946 11.4496 15.7071 11.2621C15.5196 11.0746 15.2652 10.9692 15 10.9692H10.746C10.846 10.4522 11.019 9.9712 11.256 9.5762C11.966 8.3912 13.59 8.0852 14.499 9.2362C14.851 9.6812 15.449 9.8822 15.947 9.5182C16.1606 9.36105 16.3031 9.12548 16.343 8.86331C16.383 8.60114 16.3171 8.33384 16.16 8.1202C15.315 6.9642 14.062 6.3992 12.629 6.5212C11.196 6.6432 10.172 7.4942 9.541 8.5472C9.105 9.2742 8.838 10.1192 8.718 10.9692H8C7.73478 10.9692 7.48043 11.0746 7.29289 11.2621C7.10536 11.4496 7 11.704 7 11.9692C7 12.2344 7.10536 12.4888 7.29289 12.6763C7.48043 12.8638 7.73478 12.9692 8 12.9692H8.7Z" fill="#9E9E9E"/>
</svg>
