<svg width="24" height="24" viewBox="0 0 24 24" fill="none" xmlns="http://www.w3.org/2000/svg">
<path fill-rule="evenodd" clip-rule="evenodd" d="M13.0001 3C13.5047 2.99984 13.9907 3.19041 14.3607 3.5335C14.7306 3.87659 14.9573 4.34684 14.9951 4.85L15.0001 5V19H16.0001V9.5C16.0001 9.38297 16.0411 9.26964 16.116 9.17974C16.1909 9.08984 16.295 9.02907 16.4101 9.008L16.5001 9H18.0001C18.5047 8.99984 18.9907 9.19041 19.3607 9.5335C19.7306 9.87659 19.9573 10.3468 19.9951 10.85L20.0001 11V19H21.0001C21.255 19.0003 21.5001 19.0979 21.6855 19.2728C21.8708 19.4478 21.9823 19.687 21.9973 19.9414C22.0122 20.1958 21.9294 20.4464 21.7658 20.6418C21.6023 20.8373 21.3702 20.9629 21.1171 20.993L21.0001 21H3.00011C2.74523 20.9997 2.50008 20.9021 2.31474 20.7272C2.12941 20.5522 2.01788 20.313 2.00294 20.0586C1.988 19.8042 2.07079 19.5536 2.23438 19.3582C2.39797 19.1627 2.63002 19.0371 2.88311 19.007L3.00011 19H4.00011V5C3.99995 4.49542 4.19052 4.00943 4.53361 3.63945C4.8767 3.26947 5.34696 3.04284 5.85011 3.005L6.00011 3H13.0001ZM11.0001 15H8.00011V17H11.0001V15ZM11.0001 11H8.00011V13H11.0001V11ZM11.0001 7H8.00011V9H11.0001V7Z" fill="white"/>
</svg>
